<svg width="22" height="18" viewBox="0 0 22 18" fill="none" xmlns="http://www.w3.org/2000/svg">
<path d="M18.7 0.333984H3.3C2.42478 0.333984 1.58541 0.681662 0.966545 1.30053C0.347678 1.9194 0 2.75877 0 3.63398C0 3.92572 0.115898 4.20551 0.322182 4.4118C0.528465 4.61809 0.808266 4.73398 1.1 4.73398C1.39173 4.73398 1.67153 4.61809 1.87782 4.4118C2.0841 4.20551 2.2 3.92572 2.2 3.63398C2.2 3.34225 2.3159 3.06246 2.52218 2.85617C2.72847 2.64988 3.00827 2.53398 3.3 2.53398H18.7C18.9917 2.53398 19.2715 2.64988 19.4778 2.85617C19.6841 3.06246 19.8 3.34225 19.8 3.63398V14.634C19.8 14.9257 19.6841 15.2055 19.4778 15.4118C19.2715 15.6181 18.9917 15.734 18.7 15.734H17.05C16.7583 15.734 16.4785 15.8499 16.2722 16.0562C16.0659 16.2625 15.95 16.5422 15.95 16.834C15.95 17.1257 16.0659 17.4055 16.2722 17.6118C16.4785 17.8181 16.7583 17.934 17.05 17.934H18.7C19.5752 17.934 20.4146 17.5863 21.0335 16.9674C21.6523 16.3486 22 15.5092 22 14.634V3.63398C22 2.75877 21.6523 1.9194 21.0335 1.30053C20.4146 0.681662 19.5752 0.333984 18.7 0.333984Z" fill="white"/>
<path d="M1.88739 7.25748C1.78481 7.15492 1.66306 7.07357 1.52905 7.01806C1.39504 6.96255 1.25143 6.93398 1.10638 6.93398C0.961325 6.93398 0.817715 6.96255 0.683707 7.01806C0.549698 7.07357 0.427942 7.15492 0.325371 7.25748C0.222816 7.36005 0.141461 7.48181 0.0859543 7.61581C0.0304474 7.74982 0.00187988 7.89344 0.00187988 8.03849C0.00187988 8.18353 0.0304474 8.32715 0.0859543 8.46116C0.141461 8.59516 0.222816 8.71692 0.325371 8.81949L3.95537 12.4385L0.325371 16.0575C0.222279 16.1597 0.140437 16.2814 0.0845947 16.4155C0.0287521 16.5495 0 16.6933 0 16.8385C0 16.9837 0.0287521 17.1275 0.0845947 17.2615C0.140437 17.3956 0.222279 17.5172 0.325371 17.6195C0.42764 17.7226 0.549295 17.8044 0.683337 17.8603C0.817397 17.9161 0.961157 17.9449 1.10638 17.9449C1.2516 17.9449 1.39536 17.9161 1.52942 17.8603C1.66346 17.8044 1.78512 17.7226 1.88739 17.6195L6.28739 13.2195C6.39048 13.1172 6.47232 12.9956 6.52816 12.8615C6.584 12.7275 6.61276 12.5837 6.61276 12.4385C6.61276 12.2933 6.584 12.1495 6.52816 12.0155C6.47232 11.8814 6.39048 11.7597 6.28739 11.6575L1.88739 7.25748Z" fill="white"/>
<path d="M13.9778 16.0562C14.1841 16.2625 14.3 16.5422 14.3 16.834C14.3 17.1257 14.1841 17.4055 13.9778 17.6118C13.7715 17.8181 13.4917 17.934 13.2 17.934H7.7C7.40827 17.934 7.12847 17.8181 6.92218 17.6118C6.7159 17.4055 6.6 17.1257 6.6 16.834C6.6 16.5422 6.7159 16.2625 6.92218 16.0562C7.12847 15.8499 7.40827 15.734 7.7 15.734H13.2C13.4917 15.734 13.7715 15.8499 13.9778 16.0562Z" fill="white"/>
</svg>
