<svg width="23" height="24" viewBox="0 0 23 24" fill="none" xmlns="http://www.w3.org/2000/svg">
<path d="M22.218 9.01649L20.0445 8.29199L21.068 6.24499C21.1718 6.03072 21.2065 5.78955 21.1673 5.55472C21.1282 5.3199 21.0171 5.10302 20.8495 4.93399L18.4 2.48449C18.2301 2.31439 18.0111 2.20183 17.7739 2.16263C17.5367 2.12344 17.2931 2.15958 17.0775 2.26599L15.0305 3.28949L14.306 1.11599C14.2295 0.889429 14.0842 0.692358 13.8905 0.552198C13.6967 0.412039 13.4641 0.335764 13.225 0.333988H9.775C9.53391 0.333366 9.29872 0.40853 9.10268 0.548856C8.90663 0.689183 8.75965 0.887574 8.6825 1.11599L7.958 3.28949L5.911 2.26599C5.69674 2.16223 5.45556 2.12753 5.22074 2.16667C4.98592 2.20581 4.76903 2.31685 4.6 2.48449L2.1505 4.93399C1.9804 5.10392 1.86784 5.32289 1.82865 5.56011C1.78945 5.79733 1.8256 6.04087 1.932 6.25649L2.9555 8.30349L0.782004 9.02799C0.555445 9.1045 0.358373 9.24974 0.218214 9.44349C0.0780548 9.63724 0.00177982 9.86986 3.83356e-06 10.109V13.559C-0.000618502 13.8001 0.0745456 14.0353 0.214872 14.2313C0.355198 14.4274 0.55359 14.5743 0.782004 14.6515L2.9555 15.376L1.932 17.423C1.82825 17.6372 1.79355 17.8784 1.83268 18.1132C1.87182 18.3481 1.98287 18.565 2.1505 18.734L4.6 21.1835C4.76993 21.3536 4.9889 21.4661 5.22613 21.5053C5.46335 21.5445 5.70689 21.5084 5.9225 21.402L7.9695 20.3785L8.694 22.552C8.77115 22.7804 8.91813 22.9788 9.11418 23.1191C9.31022 23.2594 9.54541 23.3346 9.7865 23.334H13.2365C13.4776 23.3346 13.7128 23.2594 13.9088 23.1191C14.1049 22.9788 14.2519 22.7804 14.329 22.552L15.0535 20.3785L17.1005 21.402C17.3134 21.5031 17.5522 21.5364 17.7846 21.4973C18.0171 21.4582 18.2319 21.3487 18.4 21.1835L20.8495 18.734C21.0196 18.5641 21.1322 18.3451 21.1714 18.1079C21.2105 17.8706 21.1744 17.6271 21.068 17.4115L20.0445 15.3645L22.218 14.64C22.4446 14.5635 22.6416 14.4182 22.7818 14.2245C22.9219 14.0307 22.9982 13.7981 23 13.559V10.109C23.0006 9.86789 22.9255 9.63271 22.7851 9.43666C22.6448 9.24062 22.4464 9.09363 22.218 9.01649ZM20.7 12.731L19.32 13.191C19.0027 13.2939 18.7115 13.4647 18.4668 13.6913C18.222 13.918 18.0295 14.1953 17.9026 14.5038C17.7757 14.8123 17.7174 15.1448 17.7318 15.4781C17.7462 15.8114 17.8329 16.1376 17.986 16.434L18.6415 17.745L17.3765 19.01L16.1 18.32C15.8051 18.1731 15.482 18.0912 15.1528 18.08C14.8235 18.0687 14.4956 18.1284 14.1914 18.2549C13.8871 18.3814 13.6136 18.5718 13.3894 18.8131C13.1651 19.0545 12.9953 19.3413 12.8915 19.654L12.4315 21.034H10.603L10.143 19.654C10.0401 19.3366 9.86933 19.0455 9.64263 18.8007C9.41594 18.556 9.13871 18.3635 8.83018 18.2366C8.52166 18.1096 8.18921 18.0514 7.85591 18.0658C7.52261 18.0802 7.19643 18.1669 6.9 18.32L5.589 18.9755L4.324 17.7105L5.014 16.434C5.16706 16.1376 5.2538 15.8114 5.2682 15.4781C5.28261 15.1448 5.22433 14.8123 5.09742 14.5038C4.97051 14.1953 4.778 13.918 4.53324 13.6913C4.28848 13.4647 3.99734 13.2939 3.68 13.191L2.3 12.731V10.937L3.68 10.477C3.99734 10.374 4.28848 10.2033 4.53324 9.97662C4.778 9.74992 4.97051 9.4727 5.09742 9.16417C5.22433 8.85564 5.28261 8.52319 5.2682 8.18989C5.2538 7.85659 5.16706 7.53042 5.014 7.23399L4.3585 5.95749L5.6235 4.69249L6.9 5.34799C7.19643 5.50104 7.52261 5.58778 7.85591 5.60219C8.18921 5.61659 8.52166 5.55832 8.83018 5.43141C9.13871 5.30449 9.41594 5.11198 9.64263 4.86722C9.86933 4.62247 10.0401 4.33132 10.143 4.01399L10.603 2.63399H12.397L12.857 4.01399C12.9599 4.33132 13.1307 4.62247 13.3574 4.86722C13.5841 5.11198 13.8613 5.30449 14.1698 5.43141C14.4783 5.55832 14.8108 5.61659 15.1441 5.60219C15.4774 5.58778 15.8036 5.50104 16.1 5.34799L17.411 4.69249L18.676 5.95749L17.986 7.23399C17.8391 7.5289 17.7572 7.85193 17.746 8.18123C17.7348 8.51052 17.7944 8.83838 17.9209 9.14262C18.0474 9.44686 18.2378 9.72036 18.4792 9.94463C18.7205 10.1689 19.0073 10.3387 19.32 10.4425L20.7 10.9025V12.731ZM11.5 7.23399C10.5902 7.23399 9.70084 7.50377 8.94438 8.00923C8.18791 8.51468 7.59832 9.2331 7.25015 10.0736C6.90199 10.9142 6.8109 11.8391 6.98839 12.7314C7.16588 13.6237 7.60399 14.4434 8.24731 15.0867C8.89063 15.73 9.71027 16.1681 10.6026 16.3456C11.4949 16.5231 12.4198 16.432 13.2603 16.0838C14.1009 15.7357 14.8193 15.1461 15.3248 14.3896C15.8302 13.6331 16.1 12.7438 16.1 11.834C16.1 10.614 15.6154 9.44396 14.7527 8.58129C13.89 7.71863 12.72 7.23399 11.5 7.23399ZM11.5 14.134C11.0451 14.134 10.6004 13.9991 10.2222 13.7464C9.84396 13.4936 9.54916 13.1344 9.37508 12.7142C9.201 12.2939 9.15545 11.8314 9.24419 11.3853C9.33294 10.9391 9.55199 10.5293 9.87365 10.2076C10.1953 9.88598 10.6051 9.66692 11.0513 9.57818C11.4974 9.48943 11.9599 9.53498 12.3802 9.70906C12.8004 9.88314 13.1597 10.1779 13.4124 10.5562C13.6651 10.9344 13.8 11.3791 13.8 11.834C13.8 12.444 13.5577 13.029 13.1263 13.4603C12.695 13.8917 12.11 14.134 11.5 14.134Z" fill="white"/>
</svg>
