<svg width="22" height="23" viewBox="0 0 22 23" fill="none" xmlns="http://www.w3.org/2000/svg">
<path fill-rule="evenodd" clip-rule="evenodd" d="M0 3.92582C0 1.9421 1.60812 0.333984 3.59184 0.333984H6.06122C8.04494 0.333984 9.65306 1.9421 9.65306 3.92582V6.39521C9.65306 8.37893 8.04494 9.98705 6.06122 9.98705H3.59184C1.60812 9.98705 0 8.37893 0 6.39521V3.92582ZM3.59184 2.57888C2.84794 2.57888 2.2449 3.18193 2.2449 3.92582V6.39521C2.2449 7.1391 2.84794 7.74215 3.59184 7.74215H6.06122C6.80512 7.74215 7.40816 7.1391 7.40816 6.39521V3.92582C7.40816 3.18193 6.80512 2.57888 6.06122 2.57888H3.59184ZM12.3469 3.92582C12.3469 1.9421 13.9551 0.333984 15.9388 0.333984H18.4082C20.3919 0.333984 22 1.9421 22 3.92582V6.39521C22 8.37893 20.3919 9.98705 18.4082 9.98705H15.9388C13.9551 9.98705 12.3469 8.37893 12.3469 6.39521V3.92582ZM15.9388 2.57888C15.1949 2.57888 14.5918 3.18193 14.5918 3.92582V6.39521C14.5918 7.1391 15.1949 7.74215 15.9388 7.74215H18.4082C19.1521 7.74215 19.7551 7.1391 19.7551 6.39521V3.92582C19.7551 3.18193 19.1521 2.57888 18.4082 2.57888H15.9388ZM0 16.2728C0 14.289 1.60812 12.6809 3.59184 12.6809H6.06122C8.04494 12.6809 9.65306 14.289 9.65306 16.2728V18.7421C9.65306 20.7259 8.04494 22.334 6.06122 22.334H3.59184C1.60812 22.334 0 20.7259 0 18.7421V16.2728ZM3.59184 14.9258C2.84794 14.9258 2.2449 15.5289 2.2449 16.2728V18.7421C2.2449 19.486 2.84794 20.0891 3.59184 20.0891H6.06122C6.80512 20.0891 7.40816 19.486 7.40816 18.7421V16.2728C7.40816 15.5289 6.80512 14.9258 6.06122 14.9258H3.59184ZM12.3469 16.2728C12.3469 14.289 13.9551 12.6809 15.9388 12.6809H18.4082C20.3919 12.6809 22 14.289 22 16.2728V18.7421C22 20.7259 20.3919 22.334 18.4082 22.334H15.9388C13.9551 22.334 12.3469 20.7259 12.3469 18.7421V16.2728ZM15.9388 14.9258C15.1949 14.9258 14.5918 15.5289 14.5918 16.2728V18.7421C14.5918 19.486 15.1949 20.0891 15.9388 20.0891H18.4082C19.1521 20.0891 19.7551 19.486 19.7551 18.7421V16.2728C19.7551 15.5289 19.1521 14.9258 18.4082 14.9258H15.9388Z" fill="white"/>
</svg>
