<svg width="16" height="13" viewBox="0 0 16 13" fill="none" xmlns="http://www.w3.org/2000/svg">
<path d="M15.6335 0.681247C15.5276 0.571211 15.4017 0.483873 15.263 0.424272C15.1243 0.36467 14.9755 0.333984 14.8252 0.333984C14.6749 0.333984 14.5261 0.36467 14.3873 0.424272C14.2486 0.483873 14.1227 0.571211 14.0168 0.681247L5.53519 9.43918L1.97176 5.75286C1.86187 5.6434 1.73215 5.55733 1.59 5.49957C1.44786 5.4418 1.29607 5.41347 1.14331 5.4162C0.990548 5.41892 0.839803 5.45265 0.699681 5.51545C0.559559 5.57825 0.432805 5.6689 0.326655 5.78221C0.220505 5.89553 0.137038 6.02929 0.0810208 6.17587C0.0250032 6.32245 -0.00246884 6.47897 0.000174094 6.63649C0.00281703 6.79402 0.035523 6.94947 0.0964241 7.09396C0.157325 7.23845 0.245229 7.36916 0.355117 7.47862L4.72687 11.9867C4.83271 12.0968 4.95862 12.1841 5.09736 12.2437C5.23609 12.3033 5.3849 12.334 5.53519 12.334C5.68548 12.334 5.83429 12.3033 5.97302 12.2437C6.11176 12.1841 6.23767 12.0968 6.34351 11.9867L15.6335 2.40701C15.749 2.29707 15.8413 2.16365 15.9044 2.01514C15.9674 1.86663 16 1.70626 16 1.54413C16 1.382 15.9674 1.22162 15.9044 1.07312C15.8413 0.924607 15.749 0.791182 15.6335 0.681247Z" fill="white"/>
</svg>
