<svg width="22" height="23" viewBox="0 0 22 23" fill="none" xmlns="http://www.w3.org/2000/svg">
<path fill-rule="evenodd" clip-rule="evenodd" d="M13.4694 2.35439C12.9735 2.35439 12.5714 1.95236 12.5714 1.45643C12.5714 0.960504 12.9735 0.558474 13.4694 0.558474H20.8776C21.3735 0.558474 21.7755 0.960504 21.7755 1.45643V8.8646C21.7755 9.36053 21.3735 9.76256 20.8776 9.76256C20.3816 9.76256 19.9796 9.36053 19.9796 8.8646V3.6243L9.16556 14.4383C8.81489 14.789 8.24633 14.789 7.89566 14.4383C7.54498 14.0877 7.54498 13.5191 7.89566 13.1684L18.7097 2.35439H13.4694ZM3.59184 4.82378C2.72396 4.82378 2.02041 5.52733 2.02041 6.39521V18.7421C2.02041 19.61 2.72396 20.3136 3.59184 20.3136H15.9388C16.8067 20.3136 17.5102 19.61 17.5102 18.7421V13.8034C17.5102 13.3074 17.9122 12.9054 18.4082 12.9054C18.9041 12.9054 19.3061 13.3074 19.3061 13.8034V18.7421C19.3061 20.6019 17.7985 22.1095 15.9388 22.1095H3.59184C1.7321 22.1095 0.22449 20.6019 0.22449 18.7421V6.39521C0.22449 4.53547 1.7321 3.02786 3.59184 3.02786H8.53061C9.02654 3.02786 9.42857 3.42989 9.42857 3.92582C9.42857 4.42175 9.02654 4.82378 8.53061 4.82378H3.59184Z" fill="white"/>
<path fill-rule="evenodd" clip-rule="evenodd" d="M12.3469 1.45643C12.3469 0.836522 12.8495 0.333984 13.4694 0.333984H20.8776C21.4975 0.333984 22 0.836522 22 1.45643V8.8646C22 9.48451 21.4975 9.98705 20.8776 9.98705C20.2576 9.98705 19.7551 9.48451 19.7551 8.8646V4.16627L9.3243 14.5971C8.88596 15.0354 8.17526 15.0354 7.73692 14.5971C7.29858 14.1587 7.29858 13.448 7.73692 13.0097L18.1677 2.57888H13.4694C12.8495 2.57888 12.3469 2.07634 12.3469 1.45643ZM13.4694 0.782964C13.0974 0.782964 12.7959 1.08449 12.7959 1.45643C12.7959 1.82838 13.0974 2.1299 13.4694 2.1299H18.7097C18.8005 2.1299 18.8823 2.1846 18.9171 2.26848C18.9518 2.35237 18.9326 2.44893 18.8684 2.51313L8.0544 13.3272C7.79139 13.5902 7.79139 14.0166 8.0544 14.2796C8.3174 14.5426 8.74382 14.5426 9.00683 14.2796L19.8209 3.46556C19.8851 3.40136 19.9816 3.38215 20.0655 3.4169C20.1494 3.45164 20.2041 3.5335 20.2041 3.6243V8.8646C20.2041 9.23654 20.5056 9.53807 20.8776 9.53807C21.2495 9.53807 21.551 9.23654 21.551 8.8646V1.45643C21.551 1.08449 21.2495 0.782964 20.8776 0.782964H13.4694ZM0 6.39521C0 4.41149 1.60812 2.80337 3.59184 2.80337H8.53061C9.15052 2.80337 9.65306 3.30591 9.65306 3.92582C9.65306 4.54573 9.15052 5.04827 8.53061 5.04827H3.59184C2.84794 5.04827 2.2449 5.65131 2.2449 6.39521V18.7421C2.2449 19.486 2.84794 20.0891 3.59184 20.0891H15.9388C16.6827 20.0891 17.2857 19.486 17.2857 18.7421V13.8034C17.2857 13.1835 17.7883 12.6809 18.4082 12.6809C19.0281 12.6809 19.5306 13.1835 19.5306 13.8034V18.7421C19.5306 20.7259 17.9225 22.334 15.9388 22.334H3.59184C1.60812 22.334 0 20.7259 0 18.7421V6.39521ZM3.59184 3.25235C1.85608 3.25235 0.44898 4.65946 0.44898 6.39521V18.7421C0.44898 20.4779 1.85608 21.885 3.59184 21.885H15.9388C17.6745 21.885 19.0816 20.4779 19.0816 18.7421V13.8034C19.0816 13.4314 18.7801 13.1299 18.4082 13.1299C18.0362 13.1299 17.7347 13.4314 17.7347 13.8034V18.7421C17.7347 19.734 16.9306 20.5381 15.9388 20.5381H3.59184C2.59998 20.5381 1.79592 19.734 1.79592 18.7421V6.39521C1.79592 5.40335 2.59998 4.59929 3.59184 4.59929H8.53061C8.90256 4.59929 9.20408 4.29777 9.20408 3.92582C9.20408 3.55387 8.90256 3.25235 8.53061 3.25235H3.59184Z" fill="white"/>
</svg>
