<svg width="28" height="28" viewBox="0 0 28 28" fill="none" xmlns="http://www.w3.org/2000/svg">
<path fill-rule="evenodd" clip-rule="evenodd" d="M15.3427 4.25451C15.9394 4.457 16.3408 5.01711 16.3408 5.64723V10.6732H20.9607C21.5206 10.6732 22.032 10.9911 22.2796 11.4933C22.5273 11.9955 22.4684 12.5947 22.1276 13.039L14.2968 23.248C13.9133 23.748 13.2539 23.9481 12.6572 23.7456C12.0605 23.5431 11.6591 22.983 11.6591 22.3529L11.6591 17.327H7.03924C6.4793 17.327 5.96794 17.009 5.72024 16.5069C5.47254 16.0047 5.53148 15.4054 5.87227 14.9611L13.7031 4.75211C14.0866 4.25213 14.746 4.05201 15.3427 4.25451ZM10.0209 14.3855H13.1299C13.5199 14.3855 13.894 14.5405 14.1698 14.8163C14.4456 15.0921 14.6006 15.4662 14.6006 15.8563V18.019L17.979 13.6146L14.87 13.6146C14.0578 13.6146 13.3993 12.9561 13.3993 12.1439V9.98112L10.0209 14.3855Z" fill="#D4DAED" style="mix-blend-mode:multiply"/>
<path fill-rule="evenodd" clip-rule="evenodd" d="M14 2.94146C7.89254 2.94146 2.94146 7.89254 2.94146 14C2.94146 20.1075 7.89254 25.0585 14 25.0585C20.1075 25.0585 25.0585 20.1075 25.0585 14C25.0585 7.89254 20.1075 2.94146 14 2.94146ZM0 14C0 6.26801 6.26801 0 14 0C21.732 0 28 6.26801 28 14C28 21.732 21.732 28 14 28C6.26801 28 0 21.732 0 14Z" fill="#D4DAED" style="mix-blend-mode:multiply"/>
</svg>
