<svg width="25" height="25" viewBox="0 0 25 25" fill="none" xmlns="http://www.w3.org/2000/svg">
<path fill-rule="evenodd" clip-rule="evenodd" d="M0 4.27166C0 1.91249 1.91249 0 4.27166 0H7.01444C9.37361 0 11.2861 1.91249 11.2861 4.27166V7.01444C11.2861 9.37361 9.37361 11.2861 7.01444 11.2861H4.27166C1.91249 11.2861 0 9.37361 0 7.01444V4.27166ZM4.27166 3.05776C3.60124 3.05776 3.05776 3.60124 3.05776 4.27166V7.01444C3.05776 7.68486 3.60124 8.22834 4.27166 8.22834H7.01444C7.68486 8.22834 8.22834 7.68486 8.22834 7.01444V4.27166C8.22834 3.60124 7.68486 3.05776 7.01444 3.05776H4.27166ZM13.7139 4.27166C13.7139 1.91249 15.6264 0 17.9856 0H20.7283C23.0875 0 25 1.91249 25 4.27166V7.01444C25 9.37361 23.0875 11.2861 20.7283 11.2861H17.9856C15.6264 11.2861 13.7139 9.37361 13.7139 7.01444V4.27166ZM17.9856 3.05776C17.3151 3.05776 16.7717 3.60124 16.7717 4.27166V7.01444C16.7717 7.68486 17.3151 8.22834 17.9856 8.22834H20.7283C21.3988 8.22834 21.9422 7.68486 21.9422 7.01444V4.27166C21.9422 3.60124 21.3988 3.05776 20.7283 3.05776H17.9856ZM0 17.9856C0 15.6264 1.91249 13.7139 4.27166 13.7139H7.01444C9.37361 13.7139 11.2861 15.6264 11.2861 17.9856V20.7283C11.2861 23.0875 9.37361 25 7.01444 25H4.27166C1.91249 25 0 23.0875 0 20.7283V17.9856ZM4.27166 16.7717C3.60124 16.7717 3.05776 17.3151 3.05776 17.9856V20.7283C3.05776 21.3988 3.60124 21.9422 4.27166 21.9422H7.01444C7.68486 21.9422 8.22834 21.3988 8.22834 20.7283V17.9856C8.22834 17.3151 7.68486 16.7717 7.01444 16.7717H4.27166ZM13.7139 17.9856C13.7139 15.6264 15.6264 13.7139 17.9856 13.7139H20.7283C23.0875 13.7139 25 15.6264 25 17.9856V20.7283C25 23.0875 23.0875 25 20.7283 25H17.9856C15.6264 25 13.7139 23.0875 13.7139 20.7283V17.9856ZM17.9856 16.7717C17.3151 16.7717 16.7717 17.3151 16.7717 17.9856V20.7283C16.7717 21.3988 17.3151 21.9422 17.9856 21.9422H20.7283C21.3988 21.9422 21.9422 21.3988 21.9422 20.7283V17.9856C21.9422 17.3151 21.3988 16.7717 20.7283 16.7717H17.9856Z" fill="#D4DAED" style="mix-blend-mode:multiply"/>
</svg>
