<svg width="24" height="32" viewBox="0 0 24 32" fill="none" xmlns="http://www.w3.org/2000/svg">
<path fill-rule="evenodd" clip-rule="evenodd" d="M13.44 4.04514C13.44 1.81108 15.2511 0 17.4851 0H19.9549C22.1889 0 24 1.81107 24 4.04515V6.51486C24 8.74893 22.1889 10.56 19.9549 10.56H17.4851C15.2511 10.56 13.44 8.74892 13.44 6.51486V6.71994L6.72 6.71994L6.72 10.56H6.51486C8.74893 10.56 10.56 12.3711 10.56 14.6051V17.0749C10.56 19.3089 8.74892 21.12 6.51485 21.12H6.72L6.72 24.9601H13.44V25.1651C13.44 22.9311 15.2511 21.12 17.4851 21.12H19.9549C22.1889 21.12 24 22.9311 24 25.1651V27.6349C24 29.8689 22.1889 31.68 19.9549 31.68H17.4851C15.2511 31.68 13.44 29.8689 13.44 27.6349V27.8401H5.28C4.48471 27.8401 3.84 27.1954 3.84 26.4001V21.12H4.04514C1.81107 21.12 0 19.3089 0 17.0749V14.6051C0 12.3711 1.81107 10.56 4.04515 10.56H3.84V5.27994C3.84 4.48465 4.48471 3.83994 5.28 3.83994L13.44 3.83994V4.04514ZM16.32 4.04514C16.32 3.40165 16.8417 2.88 17.4851 2.88H19.9549C20.5983 2.88 21.12 3.40165 21.12 4.04515V6.51486C21.12 7.15835 20.5983 7.68 19.9549 7.68H17.4851C16.8417 7.68 16.32 7.15835 16.32 6.51486V4.04514ZM16.32 27.6349C16.32 28.2783 16.8417 28.8 17.4851 28.8H19.9549C20.5983 28.8 21.12 28.2783 21.12 27.6349V25.1651C21.12 24.5217 20.5983 24 19.9549 24H17.4851C16.8417 24 16.32 24.5217 16.32 25.1651V27.6349ZM4.04515 13.44C3.40165 13.44 2.88 13.9617 2.88 14.6051V17.0749C2.88 17.7183 3.40165 18.24 4.04514 18.24H6.51485C7.15835 18.24 7.68 17.7183 7.68 17.0749V14.6051C7.68 13.9617 7.15835 13.44 6.51486 13.44H4.04515Z" fill="#D4DAED" style="mix-blend-mode:multiply"/>
</svg>
