<svg width="28" height="28" viewBox="0 0 28 28" fill="none" xmlns="http://www.w3.org/2000/svg">
<path fill-rule="evenodd" clip-rule="evenodd" d="M14 3C7.84671 3 2.9274 7.96334 2.9274 14C2.9274 20.0367 7.84671 25 14 25C20.1533 25 25.0726 20.0367 25.0726 14C25.0726 7.96334 20.1533 3 14 3ZM0 14C0 6.22954 6.30608 0 14 0C21.6939 0 28 6.22954 28 14C28 21.7705 21.6939 28 14 28C6.30608 28 0 21.7705 0 14ZM14 6.94444C14.8084 6.94444 15.4637 7.61602 15.4637 8.44444V13.3666L19.1995 17.0916C19.7789 17.6693 19.7916 18.6189 19.2278 19.2127C18.6641 19.8065 17.7374 19.8195 17.1581 19.2418L12.9793 15.0751C12.6961 14.7927 12.5363 14.4049 12.5363 14V8.44444C12.5363 7.61602 13.1916 6.94444 14 6.94444Z" fill="#D4DAED" style="mix-blend-mode:multiply"/>
</svg>
