<svg xmlns="http://www.w3.org/2000/svg" width="40" height="40" viewBox="0 0 40 40" fill="none">
<circle cx="19.8333" cy="19.8333" r="19.8333" fill="white"/>
<path fill-rule="evenodd" clip-rule="evenodd" d="M20 11.3571C15.1653 11.3571 11.3001 15.2569 11.3001 20C11.3001 24.7431 15.1653 28.6429 20 28.6429C24.8347 28.6429 28.6999 24.7431 28.6999 20C28.6999 15.2569 24.8347 11.3571 20 11.3571ZM9 20C9 13.8946 13.9548 9 20 9C26.0452 9 31 13.8946 31 20C31 26.1054 26.0452 31 20 31C13.9548 31 9 26.1054 9 20ZM20 14.4563C20.6352 14.4563 21.15 14.984 21.15 15.6349V19.5023L24.0853 22.4291C24.5405 22.883 24.5505 23.6292 24.1076 24.0957C23.6647 24.5622 22.9366 24.5724 22.4813 24.1185L19.198 20.8447C18.9755 20.6228 18.85 20.3182 18.85 20V15.6349C18.85 14.984 19.3648 14.4563 20 14.4563Z" fill="#A7B1BB"/>
</svg>