<svg width="18" height="16" viewBox="0 0 18 16" fill="none" xmlns="http://www.w3.org/2000/svg">
<path d="M6.77239 5.23787H17.2719C17.5059 3.83886 17.7342 2.42028 17.9653 1.01008C17.9853 0.893483 17.9969 0.775684 18 0.657531V0.551207C18 0.551207 18 0.523227 18 0.509237C17.974 0.148294 17.7371 0.00279801 17.2026 0H8.99133C6.28507 0 3.57689 0 0.866774 0C0.288925 0 0.0260032 0.128708 0 0.509237C0 0.509237 0 0.537217 0 0.551207V0.657531C0 0.713492 0 0.775048 0.023114 0.8422C0.265811 2.30649 0.513323 3.77171 0.76565 5.23787H6.77239Z" fill="#2684FF"/>
<path d="M11.2189 5.23697H11.3865C11.7419 5.23697 11.843 5.3293 11.7679 5.67626C11.557 6.64716 11.3894 7.63486 11.19 8.59737C11.1351 8.86039 11.0889 9.07863 11.0398 9.2633L10.9271 9.93202C10.8809 10.2118 10.7364 10.2734 10.4879 10.2706C9.99099 10.2706 9.49404 10.2706 8.99709 10.2706C8.50014 10.2706 8.00607 10.2706 7.50912 10.2706C7.26065 10.2706 7.11619 10.2006 7.06996 9.93202L6.9515 9.25491C6.90238 9.07024 6.85615 8.85199 6.80126 8.58898C6.59612 7.61807 6.42855 6.63038 6.22341 5.66786C6.14829 5.32091 6.24941 5.22578 6.60479 5.22858H0.765625C1.05455 6.90738 1.34347 8.58618 1.6324 10.265C1.8828 11.7442 2.1332 13.2206 2.3836 14.6942C2.49628 15.3769 2.85744 15.6456 3.5393 15.6456H8.86707H9.11843C10.9367 15.6456 12.755 15.6456 14.5733 15.6456C15.2552 15.6456 15.5701 15.3658 15.6712 14.7362C15.9159 13.2439 16.1672 11.7517 16.4253 10.2594L16.9801 7.0165C17.0783 6.42332 17.1737 5.83015 17.269 5.23977L11.2189 5.23697Z" fill="url(#paint0_linear_13753_10755)"/>
<defs>
<linearGradient id="paint0_linear_13753_10755" x1="0.765625" y1="10.4441" x2="17.2719" y2="10.4441" gradientUnits="userSpaceOnUse">
<stop offset="0.5" stop-color="#2684FF"/>
<stop offset="1" stop-color="#0052CC"/>
</linearGradient>
</defs>
</svg>
