<svg width="27" height="26" viewBox="0 0 27 26" fill="none" xmlns="http://www.w3.org/2000/svg">
<path d="M9.89561 22.3631V22.6477C9.89561 23.3532 9.9122 24.0353 9.90983 24.7291C9.9221 24.8259 9.91127 24.9242 9.87822 25.0162C9.84518 25.1081 9.79084 25.191 9.71958 25.2583C9.64833 25.3256 9.56215 25.3753 9.46798 25.4035C9.37381 25.4316 9.27429 25.4375 9.17743 25.4205C9.08279 25.4163 8.98931 25.3981 8.90012 25.3664C7.30105 24.8309 5.82451 23.9868 4.55548 22.8829C2.3605 21.0234 0.858115 18.4867 0.289069 15.6792C-0.307962 12.9426 0.0254333 10.0869 1.23716 7.55825C2.57451 4.6569 4.94959 2.35136 7.90225 1.08832C9.13524 0.546586 10.4475 0.203606 11.7894 0.0723278C14.4137 -0.203068 17.0607 0.311905 19.3859 1.5502C21.711 2.78849 23.6066 4.69273 24.8257 7.01497C25.5758 8.41621 26.0504 9.94623 26.2241 11.5235C26.5416 14.2431 25.9892 16.9929 24.645 19.3838C23.3009 21.7748 21.2331 23.6859 18.7342 24.8467C18.3035 25.0431 17.8628 25.2174 17.414 25.3688C17.2605 25.4145 17.0992 25.4289 16.9399 25.4111C16.8149 25.3974 16.6981 25.3424 16.6083 25.255C16.5184 25.1676 16.4608 25.0528 16.4446 24.929C16.4315 24.8182 16.4267 24.7065 16.4303 24.595C16.4303 23.4191 16.4303 22.2314 16.4303 21.0508C16.4365 20.4758 16.2937 19.9089 16.0155 19.4045C15.897 19.1999 15.743 19.0141 15.5984 18.8095C15.9184 18.7577 16.2336 18.713 16.5465 18.6566C17.4428 18.5117 18.3038 18.2014 19.085 17.7417C20.1497 17.0803 20.9144 16.0349 21.2182 14.8254C21.5258 13.756 21.6066 12.6348 21.4552 11.5329C21.3254 10.6102 20.9267 9.74536 20.308 9.04461C20.2638 9.00046 20.2335 8.94445 20.2209 8.88346C20.2082 8.82246 20.2138 8.75914 20.2369 8.70125C20.5415 7.67402 20.494 6.57556 20.1018 5.578C20.087 5.52461 20.0537 5.47812 20.0077 5.44672C19.9618 5.41531 19.9061 5.401 19.8506 5.40631C19.4025 5.40338 18.9579 5.48396 18.5398 5.64385C17.8713 5.8991 17.235 6.23058 16.6437 6.63162C16.5896 6.67212 16.5266 6.6994 16.4599 6.71125C16.3932 6.7231 16.3246 6.71919 16.2597 6.69983C15.1043 6.4027 13.9112 6.27513 12.7186 6.32118C11.8383 6.34776 10.9639 6.4716 10.1113 6.69042C10.039 6.71388 9.96201 6.71971 9.88693 6.70743C9.81184 6.69515 9.74084 6.66512 9.67992 6.61986C8.98022 6.13015 8.20435 5.75754 7.38317 5.51685C7.09044 5.44859 6.79222 5.40609 6.49196 5.38985C6.27627 5.37339 6.26916 5.38985 6.19568 5.59916C5.79014 6.64378 5.76665 7.79644 6.12932 8.85647L5.92548 9.11282C5.23251 9.94607 4.83521 10.9825 4.79488 12.062C4.74121 13.0389 4.85829 14.0176 5.14093 14.9548C5.36374 15.7151 5.76751 16.4111 6.31821 16.9841C6.86891 17.5572 7.55039 17.9904 8.30519 18.2474C8.9623 18.4844 9.64338 18.65 10.3365 18.7413L10.7276 18.8001C10.7169 18.8292 10.7026 18.8568 10.6849 18.8824C10.3039 19.2863 10.0559 19.7957 9.97383 20.3429C9.96828 20.4089 9.94264 20.4717 9.90031 20.5229C9.85798 20.5742 9.80096 20.6114 9.73681 20.6298C9.11283 20.8868 8.42398 20.946 7.76478 20.7991C7.74818 20.818 7.72685 20.8297 7.72922 20.8391C7.76241 21.0461 7.74818 21.0743 7.61545 21.1166C7.53799 21.1371 7.45571 21.1297 7.38324 21.0957C7.31077 21.0617 7.2528 21.0033 7.21962 20.9308C7.19355 20.8391 7.21962 20.7921 7.40687 20.6957L7.158 20.5545C6.72997 20.2923 6.37602 19.9265 6.12932 19.4915C5.82661 18.9673 5.3668 18.5497 4.81384 18.2968C4.52478 18.1571 4.20222 18.1001 3.88234 18.1321C3.73775 18.151 3.56473 18.1651 3.51021 18.3203C3.4557 18.4755 3.59317 18.5719 3.69272 18.6637C3.78615 18.7524 3.88862 18.8312 3.99848 18.8988C4.482 19.204 4.87538 19.6308 5.13856 20.1359C5.24458 20.3216 5.33802 20.5141 5.41825 20.7121C5.58382 21.1336 5.8525 21.5076 6.20008 21.8003C6.54766 22.0931 6.9632 22.2954 7.40924 22.389C8.11031 22.5473 8.83707 22.5577 9.54245 22.4196L9.89561 22.3631Z" fill="#1B1E23"/>
<path d="M6.64562 20.7592C6.56791 20.7516 6.49517 20.7178 6.43953 20.6634C6.38389 20.6091 6.34871 20.5374 6.33986 20.4605C6.33952 20.4393 6.34355 20.4182 6.35171 20.3987C6.35987 20.3791 6.37198 20.3614 6.3873 20.3466C6.40262 20.3318 6.42083 20.3203 6.4408 20.3128C6.46077 20.3053 6.48208 20.3019 6.50341 20.3029C6.58375 20.3133 6.65834 20.3499 6.71541 20.4069C6.77248 20.464 6.80881 20.5382 6.81865 20.618C6.81916 20.6395 6.81476 20.6607 6.80577 20.6802C6.79679 20.6996 6.78345 20.7168 6.76678 20.7304C6.7501 20.744 6.73053 20.7537 6.70954 20.7586C6.68855 20.7636 6.66669 20.7638 6.64562 20.7592Z" fill="#1B1E23"/>
<path d="M9.63546 21.333C9.49325 21.333 9.39844 21.2672 9.39844 21.1778C9.39844 21.0884 9.46954 21.0061 9.55961 20.9732C9.61246 20.9441 9.67323 20.9322 9.73325 20.9394C9.79327 20.9466 9.84947 20.9724 9.89382 21.0132C9.91025 21.0361 9.92151 21.0622 9.92683 21.0898C9.93215 21.1174 9.9314 21.1458 9.92463 21.1731C9.89873 21.2259 9.85711 21.2696 9.80539 21.2982C9.75368 21.3268 9.69436 21.339 9.63546 21.333Z" fill="#1B1E23"/>
<path d="M8.58146 21.3306C8.53156 21.3254 8.48232 21.3152 8.4345 21.3001C8.39614 21.2826 8.36215 21.2569 8.33495 21.2248C8.27096 21.1425 8.2994 21.0531 8.39895 20.9896C8.46444 20.9498 8.54162 20.9332 8.61784 20.9426C8.69406 20.952 8.76481 20.9868 8.81848 21.0414C8.83462 21.0594 8.84599 21.0812 8.85155 21.1047C8.85711 21.1282 8.85671 21.1527 8.85036 21.1761C8.84402 21.1994 8.83193 21.2208 8.8152 21.2383C8.79846 21.2558 8.7776 21.269 8.75448 21.2765C8.69863 21.2999 8.6407 21.318 8.58146 21.3306Z" fill="#1B1E23"/>
<path d="M5.68359 19.555C5.71915 19.5268 5.77129 19.4492 5.83529 19.4397C5.9538 19.4186 6.09601 19.5926 6.09601 19.7337C6.09833 19.7526 6.09665 19.7717 6.09109 19.7899C6.08553 19.8081 6.0762 19.8249 6.0637 19.8393C6.05121 19.8537 6.03582 19.8653 6.01853 19.8735C6.00123 19.8816 5.98242 19.8861 5.96328 19.8866C5.83766 19.8984 5.70019 19.7549 5.68359 19.555Z" fill="#1B1E23"/>
<path d="M5.62145 19.087C5.59063 19.1034 5.54323 19.1552 5.49108 19.1599C5.42772 19.1542 5.36866 19.1257 5.325 19.0798C5.28134 19.0338 5.25611 18.9737 5.25406 18.9106C5.25318 18.8936 5.25611 18.8766 5.26265 18.8608C5.26918 18.8451 5.27915 18.8309 5.29185 18.8195C5.30454 18.808 5.31964 18.7995 5.33606 18.7945C5.35247 18.7895 5.3698 18.7882 5.38679 18.7906C5.45656 18.8011 5.51967 18.8376 5.56327 18.8927C5.60687 18.9477 5.62767 19.0172 5.62145 19.087Z" fill="#1B1E23"/>
<path d="M4.84264 18.6331C4.7028 18.6331 4.57718 18.5108 4.60562 18.4426C4.62013 18.4155 4.64111 18.3923 4.66673 18.3751C4.69234 18.3579 4.72182 18.3471 4.75257 18.3438C4.8616 18.3438 4.97774 18.4496 4.9493 18.532C4.92323 18.579 4.86397 18.6143 4.84264 18.6331Z" fill="#1B1E23"/>
</svg>
