<svg width="28" height="26" viewBox="0 0 28 26" fill="none" xmlns="http://www.w3.org/2000/svg">
<path d="M8.83205 9.79883H8.88584H19.0226C18.9795 9.95009 18.9383 10.1031 18.8899 10.2526C18.419 11.6952 17.9469 13.1372 17.4736 14.5786C17.1634 15.5289 16.8496 16.4792 16.5395 17.4259C16.0614 18.8673 15.5893 20.3093 15.1231 21.7519C14.813 22.7004 14.5046 23.6525 14.1873 24.5992C14.1189 24.8784 14.0185 25.1489 13.8879 25.4053C13.8975 25.3404 13.8856 25.2742 13.8538 25.2167C13.7534 24.9035 13.6512 24.5921 13.549 24.2789C13.0972 22.9051 12.6448 21.5313 12.1918 20.1575L11.3313 17.5273C10.8855 16.1523 10.4384 14.7779 9.99023 13.4042C9.61732 12.2653 9.24321 11.1264 8.86791 9.98746C8.84362 9.92752 8.83144 9.86343 8.83205 9.79883Z" fill="#E14329"/>
<path d="M8.83184 9.7987C8.83123 9.86331 8.84341 9.9274 8.8677 9.98733C9.24181 11.1262 9.61591 12.2651 9.99002 13.404C10.4406 14.7778 10.89 16.1522 11.3382 17.5272L12.1916 20.1573C12.641 21.5311 13.0904 22.9049 13.5398 24.2787C13.642 24.5919 13.7442 24.9033 13.8446 25.2165C13.8764 25.2741 13.8884 25.3403 13.8787 25.4052L13.8159 25.3642L13.7747 25.3287C13.7855 25.2735 13.7478 25.2432 13.7173 25.2059L12.31 23.4263L9.77847 20.2054L7.00494 16.6623L4.22424 13.1229C3.38758 12.0551 2.55092 10.9916 1.71426 9.93217C1.68352 9.89626 1.66584 9.85113 1.66406 9.80404C1.74115 9.80404 1.81825 9.80404 1.89534 9.80404H8.81033C8.81124 9.80214 8.81256 9.80046 8.8142 9.79913C8.81584 9.79779 8.81776 9.79683 8.81982 9.79632C8.82187 9.79581 8.82402 9.79576 8.8261 9.79617C8.82818 9.79659 8.83014 9.79745 8.83184 9.7987Z" fill="#FB6D26"/>
<path d="M13.8867 25.4073C14.0173 25.1508 14.1178 24.8803 14.1861 24.6011C14.5035 23.6526 14.8118 22.7006 15.122 21.7539C15.6001 20.3101 16.0722 18.8681 16.5383 17.4278C16.8485 16.4776 17.1622 15.5273 17.4724 14.5806C17.9505 13.1392 18.4226 11.6972 18.8887 10.2546C18.9372 10.1051 18.9784 9.95204 19.0214 9.80078H26.2197V9.83459C26.0718 9.9774 25.9391 10.1348 25.8235 10.3044C25.3053 10.9593 24.7926 11.6195 24.2762 12.2761C23.6541 13.0662 23.0212 13.8528 22.4063 14.6447C21.9742 15.1945 21.5475 15.748 21.1137 16.2978C20.4915 17.088 19.8587 17.8745 19.2419 18.6646C18.7686 19.2661 18.3043 19.8729 17.8328 20.4744C17.2351 21.2289 16.6411 21.9817 16.0507 22.7326C15.4859 23.4444 14.9176 24.1562 14.3618 24.8841C14.2596 25.0175 14.0911 25.1136 14.0857 25.3112C14.0588 25.3112 14.0463 25.3112 14.0445 25.3414C14.0339 25.3414 14.0236 25.3455 14.0159 25.3528C14.0083 25.3601 14.0037 25.37 14.0033 25.3806C13.9674 25.3948 13.9477 25.466 13.8867 25.4073Z" fill="#FB6D26"/>
<path d="M1.66586 9.8041C1.66763 9.85119 1.68532 9.89632 1.71606 9.93223C2.55272 10.9999 3.38938 12.0635 4.22604 13.1229L7.00494 16.6624L9.78564 20.2001L12.3171 23.4211L13.7245 25.2006C13.755 25.238 13.7926 25.2682 13.7819 25.3234C13.3319 25.0387 12.9124 24.7112 12.4821 24.3998C8.48165 21.5193 4.48361 18.6365 0.487962 15.7513C0.284287 15.6228 0.13128 15.4288 0.0545765 15.2017C-0.0221269 14.9746 -0.0178665 14.7282 0.0666439 14.5038C0.581787 12.9343 1.09753 11.3624 1.61387 9.78809L1.66586 9.8041Z" fill="#FBA226"/>
<path d="M14.0938 25.3057C14.0938 25.1081 14.273 25.012 14.3698 24.8786C14.9256 24.1561 15.494 23.4425 16.0587 22.7271C16.6563 21.975 17.2503 21.2222 17.8408 20.4689C18.3123 19.8674 18.7767 19.2606 19.25 18.6591C19.8721 17.869 20.505 17.0825 21.1217 16.2924C21.5556 15.7425 21.9823 15.189 22.4143 14.6392C23.0364 13.8473 23.6693 13.0607 24.2843 12.2706C24.8006 11.614 25.3134 10.9538 25.8315 10.2989C25.9471 10.1293 26.0799 9.97191 26.2277 9.8291C26.4231 10.4092 26.6203 10.9876 26.8104 11.5695C27.1241 12.518 27.4325 13.47 27.7444 14.4167C27.9417 15.02 27.8108 15.4239 27.2891 15.7994L14.2569 25.2007C14.2049 25.238 14.1475 25.2701 14.0938 25.3057Z" fill="#FBA226"/>
<path d="M1.66527 9.80416L1.61328 9.78814C1.9838 8.66229 2.35253 7.53526 2.71946 6.40704C3.36728 4.41871 4.01449 2.43216 4.66111 0.447394C4.76151 0.146654 4.93542 0.000732422 5.19897 0.000732422C5.46251 0.000732422 5.62925 0.135977 5.73682 0.436717C6.73364 3.47853 7.73106 6.52033 8.72907 9.56214C8.75417 9.64044 8.78286 9.71696 8.80975 9.79526H1.89655C1.81946 9.79704 1.74237 9.8006 1.66527 9.80416Z" fill="#E14329"/>
<path d="M26.2217 9.7882H19.0234C19.2135 9.21875 19.4089 8.65108 19.5954 8.08163C20.3734 5.70893 21.1503 3.33622 21.926 0.963515C21.9888 0.774885 22.048 0.582696 22.1053 0.394066C22.1337 0.277021 22.2025 0.173556 22.2998 0.101693C22.3971 0.02983 22.5167 -0.00587762 22.6378 0.000789875C22.7578 -0.00147168 22.8749 0.0372451 22.9695 0.110458C23.0642 0.183671 23.1306 0.286936 23.1577 0.402964L25.2984 6.94096C25.6085 7.893 25.9133 8.84505 26.2217 9.7882Z" fill="#E14329"/>
</svg>
