<svg width="18" height="21" viewBox="0 0 18 21" fill="none" xmlns="http://www.w3.org/2000/svg">
<path d="M17.9921 5.6541C17.9921 5.6541 17.9921 5.6541 17.9921 5.5699L17.9282 5.41202C17.9059 5.37853 17.881 5.34685 17.8536 5.3173C17.825 5.27274 17.7929 5.23051 17.7576 5.191L17.6617 5.11732L17.4911 5.03312L9.49571 0.159985C9.32628 0.0554356 9.13051 0 8.93071 0C8.73091 0 8.53513 0.0554356 8.3657 0.159985L0.434279 5.03312L0.338334 5.11732L0.24239 5.191C0.207051 5.23051 0.174968 5.27274 0.146445 5.3173C0.119039 5.34685 0.0940838 5.37853 0.0718216 5.41202L0.00785834 5.5699C0.00785834 5.5699 0.00785834 5.5699 0.00785834 5.6541C-0.00261945 5.74503 -0.00261945 5.83683 0.00785834 5.92776V15.1267C0.0074958 15.3056 0.0533106 15.4816 0.140977 15.6381C0.228644 15.7947 0.355271 15.9266 0.508903 16.0214L8.50429 20.8945C8.5535 20.9245 8.6076 20.9459 8.66419 20.9576C8.66419 20.9576 8.7175 20.9576 8.74948 20.9576C8.92983 21.0141 9.12347 21.0141 9.30382 20.9576C9.30382 20.9576 9.35713 20.9576 9.38911 20.9576C9.4457 20.9459 9.49981 20.9245 9.54902 20.8945L17.4911 16.0214C17.6447 15.9266 17.7714 15.7947 17.859 15.6381C17.9467 15.4816 17.9925 15.3056 17.9921 15.1267V5.92776C18.0026 5.83683 18.0026 5.74503 17.9921 5.6541ZM7.89664 18.1159L2.03336 14.5373V7.82228L7.89664 11.3903V18.1159ZM8.96269 9.56945L2.9928 5.92776L8.96269 2.29659L14.9326 5.92776L8.96269 9.56945ZM15.892 14.5373L10.0287 18.1159V11.3903L15.892 7.82228V14.5373Z" fill="white"/>
</svg>
