<svg width="40" height="40" viewBox="0 0 40 40" fill="none" xmlns="http://www.w3.org/2000/svg">
<circle cx="19.8333" cy="19.8333" r="19.8333" fill="#3C44F1"/>
<path d="M27.9178 15.3849C27.9178 15.3849 27.9178 15.3849 27.9178 15.3047L27.8576 15.1543C27.8367 15.1224 27.8132 15.0922 27.7875 15.0641C27.7606 15.0217 27.7305 14.9814 27.6972 14.9438L27.607 14.8736L27.4466 14.7934L19.9287 10.1524C19.7694 10.0528 19.5853 10 19.3974 10C19.2096 10 19.0255 10.0528 18.8662 10.1524L11.4083 14.7934L11.3181 14.8736L11.2279 14.9438C11.1947 14.9814 11.1645 15.0217 11.1377 15.0641C11.1119 15.0922 11.0885 15.1224 11.0675 15.1543L11.0074 15.3047C11.0074 15.3047 11.0074 15.3047 11.0074 15.3849C10.9975 15.4715 10.9975 15.5589 11.0074 15.6455V24.4064C11.007 24.5768 11.0501 24.7444 11.1326 24.8935C11.215 25.0425 11.3341 25.1681 11.4785 25.2584L18.9965 29.8995C19.0427 29.9281 19.0936 29.9484 19.1468 29.9597C19.1468 29.9597 19.1969 29.9597 19.227 29.9597C19.3966 30.0134 19.5787 30.0134 19.7483 29.9597C19.7483 29.9597 19.7984 29.9597 19.8285 29.9597C19.8817 29.9484 19.9325 29.9281 19.9788 29.8995L27.4466 25.2584C27.5911 25.1681 27.7102 25.0425 27.7926 24.8935C27.875 24.7444 27.9181 24.5768 27.9178 24.4064V15.6455C27.9276 15.5589 27.9276 15.4715 27.9178 15.3849ZM18.4251 27.2532L12.9119 23.8451V17.4498L18.4251 20.8479V27.2532ZM19.4275 19.1138L13.8141 15.6455L19.4275 12.1872L25.0409 15.6455L19.4275 19.1138ZM25.9431 23.8451L20.4299 27.2532V20.8479L25.9431 17.4498V23.8451Z" fill="white"/>
</svg>
